<?xml version="1.0" encoding="utf-8" standalone="no"?>
<!DOCTYPE svg PUBLIC "-//W3C//DTD SVG 1.1//EN"
  "http://www.w3.org/Graphics/SVG/1.1/DTD/svg11.dtd">
<svg xmlns:xlink="http://www.w3.org/1999/xlink" width="1152pt" height="864pt" viewBox="0 0 1152 864" xmlns="http://www.w3.org/2000/svg" version="1.1">
 <metadata>
  <rdf:RDF xmlns:dc="http://purl.org/dc/elements/1.1/" xmlns:cc="http://creativecommons.org/ns#" xmlns:rdf="http://www.w3.org/1999/02/22-rdf-syntax-ns#">
   <cc:Work>
    <dc:type rdf:resource="http://purl.org/dc/dcmitype/StillImage"/>
    <dc:date>2026-04-30T09:56:42.810822</dc:date>
    <dc:format>image/svg+xml</dc:format>
    <dc:creator>
     <cc:Agent>
      <dc:title>Matplotlib v3.10.9, https://matplotlib.org/</dc:title>
     </cc:Agent>
    </dc:creator>
   </cc:Work>
  </rdf:RDF>
 </metadata>
 <defs>
  <style type="text/css">*{stroke-linejoin: round; stroke-linecap: butt}</style>
 </defs>
 <g id="figure_1">
  <g id="patch_1">
   <path d="M 0 864
L 1152 864
L 1152 0
L 0 0
z
" style="fill: #ffffff"/>
  </g>
  <g id="axes_1">
   <g id="patch_2">
    <path d="M 144 768.96
L 1036.8 768.96
L 1036.8 103.68
L 144 103.68
z
" style="fill: #e5e5e5"/>
   </g>
   <g id="matplotlib.axis_1">
    <g id="xtick_1">
     <g id="line2d_1">
      <path d="M 230.125805 768.96
L 230.125805 103.68
" clip-path="url(#p21e95c50f8)" style="fill: none; stroke: #ffffff; stroke-width: 0.8; stroke-linecap: square"/>
     </g>
     <g id="line2d_2">
      <defs>
       <path id="ma30c2cf5ce" d="M 0 0
L 0 3.5
" style="stroke: #555555; stroke-width: 0.8"/>
      </defs>
      <g>
       <use xlink:href="#ma30c2cf5ce" x="230.125805" y="768.96" style="fill: #555555; stroke: #555555; stroke-width: 0.8"/>
      </g>
     </g>
     <g id="text_1">
      <!-- 2026-04-17 -->
      <g style="fill: #555555" transform="translate(201.067993 783.558437) scale(0.1 -0.1)">
       <defs>
        <path id="DejaVuSans-32" d="M 1228 531
L 3431 531
L 3431 0
L 469 0
L 469 531
Q 828 903 1448 1529
Q 2069 2156 2228 2338
Q 2531 2678 2651 2914
Q 2772 3150 2772 3378
Q 2772 3750 2511 3984
Q 2250 4219 1831 4219
Q 1534 4219 1204 4116
Q 875 4013 500 3803
L 500 4441
Q 881 4594 1212 4672
Q 1544 4750 1819 4750
Q 2544 4750 2975 4387
Q 3406 4025 3406 3419
Q 3406 3131 3298 2873
Q 3191 2616 2906 2266
Q 2828 2175 2409 1742
Q 1991 1309 1228 531
z
" transform="scale(0.015625)"/>
        <path id="DejaVuSans-30" d="M 2034 4250
Q 1547 4250 1301 3770
Q 1056 3291 1056 2328
Q 1056 1369 1301 889
Q 1547 409 2034 409
Q 2525 409 2770 889
Q 3016 1369 3016 2328
Q 3016 3291 2770 3770
Q 2525 4250 2034 4250
z
M 2034 4750
Q 2819 4750 3233 4129
Q 3647 3509 3647 2328
Q 3647 1150 3233 529
Q 2819 -91 2034 -91
Q 1250 -91 836 529
Q 422 1150 422 2328
Q 422 3509 836 4129
Q 1250 4750 2034 4750
z
" transform="scale(0.015625)"/>
        <path id="DejaVuSans-36" d="M 2113 2584
Q 1688 2584 1439 2293
Q 1191 2003 1191 1497
Q 1191 994 1439 701
Q 1688 409 2113 409
Q 2538 409 2786 701
Q 3034 994 3034 1497
Q 3034 2003 2786 2293
Q 2538 2584 2113 2584
z
M 3366 4563
L 3366 3988
Q 3128 4100 2886 4159
Q 2644 4219 2406 4219
Q 1781 4219 1451 3797
Q 1122 3375 1075 2522
Q 1259 2794 1537 2939
Q 1816 3084 2150 3084
Q 2853 3084 3261 2657
Q 3669 2231 3669 1497
Q 3669 778 3244 343
Q 2819 -91 2113 -91
Q 1303 -91 875 529
Q 447 1150 447 2328
Q 447 3434 972 4092
Q 1497 4750 2381 4750
Q 2619 4750 2861 4703
Q 3103 4656 3366 4563
z
" transform="scale(0.015625)"/>
        <path id="DejaVuSans-2d" d="M 313 2009
L 1997 2009
L 1997 1497
L 313 1497
L 313 2009
z
" transform="scale(0.015625)"/>
        <path id="DejaVuSans-34" d="M 2419 4116
L 825 1625
L 2419 1625
L 2419 4116
z
M 2253 4666
L 3047 4666
L 3047 1625
L 3713 1625
L 3713 1100
L 3047 1100
L 3047 0
L 2419 0
L 2419 1100
L 313 1100
L 313 1709
L 2253 4666
z
" transform="scale(0.015625)"/>
        <path id="DejaVuSans-31" d="M 794 531
L 1825 531
L 1825 4091
L 703 3866
L 703 4441
L 1819 4666
L 2450 4666
L 2450 531
L 3481 531
L 3481 0
L 794 0
L 794 531
z
" transform="scale(0.015625)"/>
        <path id="DejaVuSans-37" d="M 525 4666
L 3525 4666
L 3525 4397
L 1831 0
L 1172 0
L 2766 4134
L 525 4134
L 525 4666
z
" transform="scale(0.015625)"/>
       </defs>
       <use xlink:href="#DejaVuSans-32"/>
       <use xlink:href="#DejaVuSans-30" transform="translate(63.623047 0)"/>
       <use xlink:href="#DejaVuSans-32" transform="translate(127.246094 0)"/>
       <use xlink:href="#DejaVuSans-36" transform="translate(190.869141 0)"/>
       <use xlink:href="#DejaVuSans-2d" transform="translate(254.492188 0)"/>
       <use xlink:href="#DejaVuSans-30" transform="translate(290.576172 0)"/>
       <use xlink:href="#DejaVuSans-34" transform="translate(354.199219 0)"/>
       <use xlink:href="#DejaVuSans-2d" transform="translate(417.822266 0)"/>
       <use xlink:href="#DejaVuSans-31" transform="translate(453.90625 0)"/>
       <use xlink:href="#DejaVuSans-37" transform="translate(517.529297 0)"/>
      </g>
     </g>
    </g>
    <g id="xtick_2">
     <g id="line2d_3">
      <path d="M 344.485434 768.96
L 344.485434 103.68
" clip-path="url(#p21e95c50f8)" style="fill: none; stroke: #ffffff; stroke-width: 0.8; stroke-linecap: square"/>
     </g>
     <g id="line2d_4">
      <g>
       <use xlink:href="#ma30c2cf5ce" x="344.485434" y="768.96" style="fill: #555555; stroke: #555555; stroke-width: 0.8"/>
      </g>
     </g>
     <g id="text_2">
      <!-- 2026-04-19 -->
      <g style="fill: #555555" transform="translate(315.427622 783.558437) scale(0.1 -0.1)">
       <defs>
        <path id="DejaVuSans-39" d="M 703 97
L 703 672
Q 941 559 1184 500
Q 1428 441 1663 441
Q 2288 441 2617 861
Q 2947 1281 2994 2138
Q 2813 1869 2534 1725
Q 2256 1581 1919 1581
Q 1219 1581 811 2004
Q 403 2428 403 3163
Q 403 3881 828 4315
Q 1253 4750 1959 4750
Q 2769 4750 3195 4129
Q 3622 3509 3622 2328
Q 3622 1225 3098 567
Q 2575 -91 1691 -91
Q 1453 -91 1209 -44
Q 966 3 703 97
z
M 1959 2075
Q 2384 2075 2632 2365
Q 2881 2656 2881 3163
Q 2881 3666 2632 3958
Q 2384 4250 1959 4250
Q 1534 4250 1286 3958
Q 1038 3666 1038 3163
Q 1038 2656 1286 2365
Q 1534 2075 1959 2075
z
" transform="scale(0.015625)"/>
       </defs>
       <use xlink:href="#DejaVuSans-32"/>
       <use xlink:href="#DejaVuSans-30" transform="translate(63.623047 0)"/>
       <use xlink:href="#DejaVuSans-32" transform="translate(127.246094 0)"/>
       <use xlink:href="#DejaVuSans-36" transform="translate(190.869141 0)"/>
       <use xlink:href="#DejaVuSans-2d" transform="translate(254.492188 0)"/>
       <use xlink:href="#DejaVuSans-30" transform="translate(290.576172 0)"/>
       <use xlink:href="#DejaVuSans-34" transform="translate(354.199219 0)"/>
       <use xlink:href="#DejaVuSans-2d" transform="translate(417.822266 0)"/>
       <use xlink:href="#DejaVuSans-31" transform="translate(453.90625 0)"/>
       <use xlink:href="#DejaVuSans-39" transform="translate(517.529297 0)"/>
      </g>
     </g>
    </g>
    <g id="xtick_3">
     <g id="line2d_5">
      <path d="M 458.845064 768.96
L 458.845064 103.68
" clip-path="url(#p21e95c50f8)" style="fill: none; stroke: #ffffff; stroke-width: 0.8; stroke-linecap: square"/>
     </g>
     <g id="line2d_6">
      <g>
       <use xlink:href="#ma30c2cf5ce" x="458.845064" y="768.96" style="fill: #555555; stroke: #555555; stroke-width: 0.8"/>
      </g>
     </g>
     <g id="text_3">
      <!-- 2026-04-21 -->
      <g style="fill: #555555" transform="translate(429.787251 783.558437) scale(0.1 -0.1)">
       <use xlink:href="#DejaVuSans-32"/>
       <use xlink:href="#DejaVuSans-30" transform="translate(63.623047 0)"/>
       <use xlink:href="#DejaVuSans-32" transform="translate(127.246094 0)"/>
       <use xlink:href="#DejaVuSans-36" transform="translate(190.869141 0)"/>
       <use xlink:href="#DejaVuSans-2d" transform="translate(254.492188 0)"/>
       <use xlink:href="#DejaVuSans-30" transform="translate(290.576172 0)"/>
       <use xlink:href="#DejaVuSans-34" transform="translate(354.199219 0)"/>
       <use xlink:href="#DejaVuSans-2d" transform="translate(417.822266 0)"/>
       <use xlink:href="#DejaVuSans-32" transform="translate(453.90625 0)"/>
       <use xlink:href="#DejaVuSans-31" transform="translate(517.529297 0)"/>
      </g>
     </g>
    </g>
    <g id="xtick_4">
     <g id="line2d_7">
      <path d="M 573.204693 768.96
L 573.204693 103.68
" clip-path="url(#p21e95c50f8)" style="fill: none; stroke: #ffffff; stroke-width: 0.8; stroke-linecap: square"/>
     </g>
     <g id="line2d_8">
      <g>
       <use xlink:href="#ma30c2cf5ce" x="573.204693" y="768.96" style="fill: #555555; stroke: #555555; stroke-width: 0.8"/>
      </g>
     </g>
     <g id="text_4">
      <!-- 2026-04-23 -->
      <g style="fill: #555555" transform="translate(544.14688 783.558437) scale(0.1 -0.1)">
       <defs>
        <path id="DejaVuSans-33" d="M 2597 2516
Q 3050 2419 3304 2112
Q 3559 1806 3559 1356
Q 3559 666 3084 287
Q 2609 -91 1734 -91
Q 1441 -91 1130 -33
Q 819 25 488 141
L 488 750
Q 750 597 1062 519
Q 1375 441 1716 441
Q 2309 441 2620 675
Q 2931 909 2931 1356
Q 2931 1769 2642 2001
Q 2353 2234 1838 2234
L 1294 2234
L 1294 2753
L 1863 2753
Q 2328 2753 2575 2939
Q 2822 3125 2822 3475
Q 2822 3834 2567 4026
Q 2313 4219 1838 4219
Q 1578 4219 1281 4162
Q 984 4106 628 3988
L 628 4550
Q 988 4650 1302 4700
Q 1616 4750 1894 4750
Q 2613 4750 3031 4423
Q 3450 4097 3450 3541
Q 3450 3153 3228 2886
Q 3006 2619 2597 2516
z
" transform="scale(0.015625)"/>
       </defs>
       <use xlink:href="#DejaVuSans-32"/>
       <use xlink:href="#DejaVuSans-30" transform="translate(63.623047 0)"/>
       <use xlink:href="#DejaVuSans-32" transform="translate(127.246094 0)"/>
       <use xlink:href="#DejaVuSans-36" transform="translate(190.869141 0)"/>
       <use xlink:href="#DejaVuSans-2d" transform="translate(254.492188 0)"/>
       <use xlink:href="#DejaVuSans-30" transform="translate(290.576172 0)"/>
       <use xlink:href="#DejaVuSans-34" transform="translate(354.199219 0)"/>
       <use xlink:href="#DejaVuSans-2d" transform="translate(417.822266 0)"/>
       <use xlink:href="#DejaVuSans-32" transform="translate(453.90625 0)"/>
       <use xlink:href="#DejaVuSans-33" transform="translate(517.529297 0)"/>
      </g>
     </g>
    </g>
    <g id="xtick_5">
     <g id="line2d_9">
      <path d="M 687.564322 768.96
L 687.564322 103.68
" clip-path="url(#p21e95c50f8)" style="fill: none; stroke: #ffffff; stroke-width: 0.8; stroke-linecap: square"/>
     </g>
     <g id="line2d_10">
      <g>
       <use xlink:href="#ma30c2cf5ce" x="687.564322" y="768.96" style="fill: #555555; stroke: #555555; stroke-width: 0.8"/>
      </g>
     </g>
     <g id="text_5">
      <!-- 2026-04-25 -->
      <g style="fill: #555555" transform="translate(658.50651 783.558437) scale(0.1 -0.1)">
       <defs>
        <path id="DejaVuSans-35" d="M 691 4666
L 3169 4666
L 3169 4134
L 1269 4134
L 1269 2991
Q 1406 3038 1543 3061
Q 1681 3084 1819 3084
Q 2600 3084 3056 2656
Q 3513 2228 3513 1497
Q 3513 744 3044 326
Q 2575 -91 1722 -91
Q 1428 -91 1123 -41
Q 819 9 494 109
L 494 744
Q 775 591 1075 516
Q 1375 441 1709 441
Q 2250 441 2565 725
Q 2881 1009 2881 1497
Q 2881 1984 2565 2268
Q 2250 2553 1709 2553
Q 1456 2553 1204 2497
Q 953 2441 691 2322
L 691 4666
z
" transform="scale(0.015625)"/>
       </defs>
       <use xlink:href="#DejaVuSans-32"/>
       <use xlink:href="#DejaVuSans-30" transform="translate(63.623047 0)"/>
       <use xlink:href="#DejaVuSans-32" transform="translate(127.246094 0)"/>
       <use xlink:href="#DejaVuSans-36" transform="translate(190.869141 0)"/>
       <use xlink:href="#DejaVuSans-2d" transform="translate(254.492188 0)"/>
       <use xlink:href="#DejaVuSans-30" transform="translate(290.576172 0)"/>
       <use xlink:href="#DejaVuSans-34" transform="translate(354.199219 0)"/>
       <use xlink:href="#DejaVuSans-2d" transform="translate(417.822266 0)"/>
       <use xlink:href="#DejaVuSans-32" transform="translate(453.90625 0)"/>
       <use xlink:href="#DejaVuSans-35" transform="translate(517.529297 0)"/>
      </g>
     </g>
    </g>
    <g id="xtick_6">
     <g id="line2d_11">
      <path d="M 801.923951 768.96
L 801.923951 103.68
" clip-path="url(#p21e95c50f8)" style="fill: none; stroke: #ffffff; stroke-width: 0.8; stroke-linecap: square"/>
     </g>
     <g id="line2d_12">
      <g>
       <use xlink:href="#ma30c2cf5ce" x="801.923951" y="768.96" style="fill: #555555; stroke: #555555; stroke-width: 0.8"/>
      </g>
     </g>
     <g id="text_6">
      <!-- 2026-04-27 -->
      <g style="fill: #555555" transform="translate(772.866139 783.558437) scale(0.1 -0.1)">
       <use xlink:href="#DejaVuSans-32"/>
       <use xlink:href="#DejaVuSans-30" transform="translate(63.623047 0)"/>
       <use xlink:href="#DejaVuSans-32" transform="translate(127.246094 0)"/>
       <use xlink:href="#DejaVuSans-36" transform="translate(190.869141 0)"/>
       <use xlink:href="#DejaVuSans-2d" transform="translate(254.492188 0)"/>
       <use xlink:href="#DejaVuSans-30" transform="translate(290.576172 0)"/>
       <use xlink:href="#DejaVuSans-34" transform="translate(354.199219 0)"/>
       <use xlink:href="#DejaVuSans-2d" transform="translate(417.822266 0)"/>
       <use xlink:href="#DejaVuSans-32" transform="translate(453.90625 0)"/>
       <use xlink:href="#DejaVuSans-37" transform="translate(517.529297 0)"/>
      </g>
     </g>
    </g>
    <g id="xtick_7">
     <g id="line2d_13">
      <path d="M 916.283581 768.96
L 916.283581 103.68
" clip-path="url(#p21e95c50f8)" style="fill: none; stroke: #ffffff; stroke-width: 0.8; stroke-linecap: square"/>
     </g>
     <g id="line2d_14">
      <g>
       <use xlink:href="#ma30c2cf5ce" x="916.283581" y="768.96" style="fill: #555555; stroke: #555555; stroke-width: 0.8"/>
      </g>
     </g>
     <g id="text_7">
      <!-- 2026-04-29 -->
      <g style="fill: #555555" transform="translate(887.225768 783.558437) scale(0.1 -0.1)">
       <use xlink:href="#DejaVuSans-32"/>
       <use xlink:href="#DejaVuSans-30" transform="translate(63.623047 0)"/>
       <use xlink:href="#DejaVuSans-32" transform="translate(127.246094 0)"/>
       <use xlink:href="#DejaVuSans-36" transform="translate(190.869141 0)"/>
       <use xlink:href="#DejaVuSans-2d" transform="translate(254.492188 0)"/>
       <use xlink:href="#DejaVuSans-30" transform="translate(290.576172 0)"/>
       <use xlink:href="#DejaVuSans-34" transform="translate(354.199219 0)"/>
       <use xlink:href="#DejaVuSans-2d" transform="translate(417.822266 0)"/>
       <use xlink:href="#DejaVuSans-32" transform="translate(453.90625 0)"/>
       <use xlink:href="#DejaVuSans-39" transform="translate(517.529297 0)"/>
      </g>
     </g>
    </g>
    <g id="xtick_8">
     <g id="line2d_15">
      <path d="M 1030.64321 768.96
L 1030.64321 103.68
" clip-path="url(#p21e95c50f8)" style="fill: none; stroke: #ffffff; stroke-width: 0.8; stroke-linecap: square"/>
     </g>
     <g id="line2d_16">
      <g>
       <use xlink:href="#ma30c2cf5ce" x="1030.64321" y="768.96" style="fill: #555555; stroke: #555555; stroke-width: 0.8"/>
      </g>
     </g>
     <g id="text_8">
      <!-- 2026-05-01 -->
      <g style="fill: #555555" transform="translate(1001.585397 783.558437) scale(0.1 -0.1)">
       <use xlink:href="#DejaVuSans-32"/>
       <use xlink:href="#DejaVuSans-30" transform="translate(63.623047 0)"/>
       <use xlink:href="#DejaVuSans-32" transform="translate(127.246094 0)"/>
       <use xlink:href="#DejaVuSans-36" transform="translate(190.869141 0)"/>
       <use xlink:href="#DejaVuSans-2d" transform="translate(254.492188 0)"/>
       <use xlink:href="#DejaVuSans-30" transform="translate(290.576172 0)"/>
       <use xlink:href="#DejaVuSans-35" transform="translate(354.199219 0)"/>
       <use xlink:href="#DejaVuSans-2d" transform="translate(417.822266 0)"/>
       <use xlink:href="#DejaVuSans-30" transform="translate(453.90625 0)"/>
       <use xlink:href="#DejaVuSans-31" transform="translate(517.529297 0)"/>
      </g>
     </g>
    </g>
   </g>
   <g id="matplotlib.axis_2">
    <g id="ytick_1">
     <g id="line2d_17">
      <path d="M 144 768.96
L 1036.8 768.96
" clip-path="url(#p21e95c50f8)" style="fill: none; stroke: #ffffff; stroke-width: 0.8; stroke-linecap: square"/>
     </g>
     <g id="line2d_18">
      <defs>
       <path id="m489fea2d85" d="M 0 0
L -3.5 0
" style="stroke: #555555; stroke-width: 0.8"/>
      </defs>
      <g>
       <use xlink:href="#m489fea2d85" x="144" y="768.96" style="fill: #555555; stroke: #555555; stroke-width: 0.8"/>
      </g>
     </g>
     <g id="text_9">
      <!-- 0 -->
      <g style="fill: #555555" transform="translate(130.6375 772.759219) scale(0.1 -0.1)">
       <use xlink:href="#DejaVuSans-30"/>
      </g>
     </g>
    </g>
    <g id="ytick_2">
     <g id="line2d_19">
      <path d="M 144 637.447419
L 1036.8 637.447419
" clip-path="url(#p21e95c50f8)" style="fill: none; stroke: #ffffff; stroke-width: 0.8; stroke-linecap: square"/>
     </g>
     <g id="line2d_20">
      <g>
       <use xlink:href="#m489fea2d85" x="144" y="637.447419" style="fill: #555555; stroke: #555555; stroke-width: 0.8"/>
      </g>
     </g>
     <g id="text_10">
      <!-- 100000 -->
      <g style="fill: #555555" transform="translate(98.825 641.246637) scale(0.1 -0.1)">
       <use xlink:href="#DejaVuSans-31"/>
       <use xlink:href="#DejaVuSans-30" transform="translate(63.623047 0)"/>
       <use xlink:href="#DejaVuSans-30" transform="translate(127.246094 0)"/>
       <use xlink:href="#DejaVuSans-30" transform="translate(190.869141 0)"/>
       <use xlink:href="#DejaVuSans-30" transform="translate(254.492188 0)"/>
       <use xlink:href="#DejaVuSans-30" transform="translate(318.115234 0)"/>
      </g>
     </g>
    </g>
    <g id="ytick_3">
     <g id="line2d_21">
      <path d="M 144 505.934837
L 1036.8 505.934837
" clip-path="url(#p21e95c50f8)" style="fill: none; stroke: #ffffff; stroke-width: 0.8; stroke-linecap: square"/>
     </g>
     <g id="line2d_22">
      <g>
       <use xlink:href="#m489fea2d85" x="144" y="505.934837" style="fill: #555555; stroke: #555555; stroke-width: 0.8"/>
      </g>
     </g>
     <g id="text_11">
      <!-- 200000 -->
      <g style="fill: #555555" transform="translate(98.825 509.734056) scale(0.1 -0.1)">
       <use xlink:href="#DejaVuSans-32"/>
       <use xlink:href="#DejaVuSans-30" transform="translate(63.623047 0)"/>
       <use xlink:href="#DejaVuSans-30" transform="translate(127.246094 0)"/>
       <use xlink:href="#DejaVuSans-30" transform="translate(190.869141 0)"/>
       <use xlink:href="#DejaVuSans-30" transform="translate(254.492188 0)"/>
       <use xlink:href="#DejaVuSans-30" transform="translate(318.115234 0)"/>
      </g>
     </g>
    </g>
    <g id="ytick_4">
     <g id="line2d_23">
      <path d="M 144 374.422256
L 1036.8 374.422256
" clip-path="url(#p21e95c50f8)" style="fill: none; stroke: #ffffff; stroke-width: 0.8; stroke-linecap: square"/>
     </g>
     <g id="line2d_24">
      <g>
       <use xlink:href="#m489fea2d85" x="144" y="374.422256" style="fill: #555555; stroke: #555555; stroke-width: 0.8"/>
      </g>
     </g>
     <g id="text_12">
      <!-- 300000 -->
      <g style="fill: #555555" transform="translate(98.825 378.221474) scale(0.1 -0.1)">
       <use xlink:href="#DejaVuSans-33"/>
       <use xlink:href="#DejaVuSans-30" transform="translate(63.623047 0)"/>
       <use xlink:href="#DejaVuSans-30" transform="translate(127.246094 0)"/>
       <use xlink:href="#DejaVuSans-30" transform="translate(190.869141 0)"/>
       <use xlink:href="#DejaVuSans-30" transform="translate(254.492188 0)"/>
       <use xlink:href="#DejaVuSans-30" transform="translate(318.115234 0)"/>
      </g>
     </g>
    </g>
    <g id="ytick_5">
     <g id="line2d_25">
      <path d="M 144 242.909674
L 1036.8 242.909674
" clip-path="url(#p21e95c50f8)" style="fill: none; stroke: #ffffff; stroke-width: 0.8; stroke-linecap: square"/>
     </g>
     <g id="line2d_26">
      <g>
       <use xlink:href="#m489fea2d85" x="144" y="242.909674" style="fill: #555555; stroke: #555555; stroke-width: 0.8"/>
      </g>
     </g>
     <g id="text_13">
      <!-- 400000 -->
      <g style="fill: #555555" transform="translate(98.825 246.708893) scale(0.1 -0.1)">
       <use xlink:href="#DejaVuSans-34"/>
       <use xlink:href="#DejaVuSans-30" transform="translate(63.623047 0)"/>
       <use xlink:href="#DejaVuSans-30" transform="translate(127.246094 0)"/>
       <use xlink:href="#DejaVuSans-30" transform="translate(190.869141 0)"/>
       <use xlink:href="#DejaVuSans-30" transform="translate(254.492188 0)"/>
       <use xlink:href="#DejaVuSans-30" transform="translate(318.115234 0)"/>
      </g>
     </g>
    </g>
    <g id="ytick_6">
     <g id="line2d_27">
      <path d="M 144 111.397093
L 1036.8 111.397093
" clip-path="url(#p21e95c50f8)" style="fill: none; stroke: #ffffff; stroke-width: 0.8; stroke-linecap: square"/>
     </g>
     <g id="line2d_28">
      <g>
       <use xlink:href="#m489fea2d85" x="144" y="111.397093" style="fill: #555555; stroke: #555555; stroke-width: 0.8"/>
      </g>
     </g>
     <g id="text_14">
      <!-- 500000 -->
      <g style="fill: #555555" transform="translate(98.825 115.196311) scale(0.1 -0.1)">
       <use xlink:href="#DejaVuSans-35"/>
       <use xlink:href="#DejaVuSans-30" transform="translate(63.623047 0)"/>
       <use xlink:href="#DejaVuSans-30" transform="translate(127.246094 0)"/>
       <use xlink:href="#DejaVuSans-30" transform="translate(190.869141 0)"/>
       <use xlink:href="#DejaVuSans-30" transform="translate(254.492188 0)"/>
       <use xlink:href="#DejaVuSans-30" transform="translate(318.115234 0)"/>
      </g>
     </g>
    </g>
    <g id="text_15">
     <!-- Lines of code -->
     <g style="fill: #555555" transform="translate(92.329375 476.018437) rotate(-90) scale(0.12 -0.12)">
      <defs>
       <path id="DejaVuSans-4c" d="M 628 4666
L 1259 4666
L 1259 531
L 3531 531
L 3531 0
L 628 0
L 628 4666
z
" transform="scale(0.015625)"/>
       <path id="DejaVuSans-69" d="M 603 3500
L 1178 3500
L 1178 0
L 603 0
L 603 3500
z
M 603 4863
L 1178 4863
L 1178 4134
L 603 4134
L 603 4863
z
" transform="scale(0.015625)"/>
       <path id="DejaVuSans-6e" d="M 3513 2113
L 3513 0
L 2938 0
L 2938 2094
Q 2938 2591 2744 2837
Q 2550 3084 2163 3084
Q 1697 3084 1428 2787
Q 1159 2491 1159 1978
L 1159 0
L 581 0
L 581 3500
L 1159 3500
L 1159 2956
Q 1366 3272 1645 3428
Q 1925 3584 2291 3584
Q 2894 3584 3203 3211
Q 3513 2838 3513 2113
z
" transform="scale(0.015625)"/>
       <path id="DejaVuSans-65" d="M 3597 1894
L 3597 1613
L 953 1613
Q 991 1019 1311 708
Q 1631 397 2203 397
Q 2534 397 2845 478
Q 3156 559 3463 722
L 3463 178
Q 3153 47 2828 -22
Q 2503 -91 2169 -91
Q 1331 -91 842 396
Q 353 884 353 1716
Q 353 2575 817 3079
Q 1281 3584 2069 3584
Q 2775 3584 3186 3129
Q 3597 2675 3597 1894
z
M 3022 2063
Q 3016 2534 2758 2815
Q 2500 3097 2075 3097
Q 1594 3097 1305 2825
Q 1016 2553 972 2059
L 3022 2063
z
" transform="scale(0.015625)"/>
       <path id="DejaVuSans-73" d="M 2834 3397
L 2834 2853
Q 2591 2978 2328 3040
Q 2066 3103 1784 3103
Q 1356 3103 1142 2972
Q 928 2841 928 2578
Q 928 2378 1081 2264
Q 1234 2150 1697 2047
L 1894 2003
Q 2506 1872 2764 1633
Q 3022 1394 3022 966
Q 3022 478 2636 193
Q 2250 -91 1575 -91
Q 1294 -91 989 -36
Q 684 19 347 128
L 347 722
Q 666 556 975 473
Q 1284 391 1588 391
Q 1994 391 2212 530
Q 2431 669 2431 922
Q 2431 1156 2273 1281
Q 2116 1406 1581 1522
L 1381 1569
Q 847 1681 609 1914
Q 372 2147 372 2553
Q 372 3047 722 3315
Q 1072 3584 1716 3584
Q 2034 3584 2315 3537
Q 2597 3491 2834 3397
z
" transform="scale(0.015625)"/>
       <path id="DejaVuSans-20" transform="scale(0.015625)"/>
       <path id="DejaVuSans-6f" d="M 1959 3097
Q 1497 3097 1228 2736
Q 959 2375 959 1747
Q 959 1119 1226 758
Q 1494 397 1959 397
Q 2419 397 2687 759
Q 2956 1122 2956 1747
Q 2956 2369 2687 2733
Q 2419 3097 1959 3097
z
M 1959 3584
Q 2709 3584 3137 3096
Q 3566 2609 3566 1747
Q 3566 888 3137 398
Q 2709 -91 1959 -91
Q 1206 -91 779 398
Q 353 888 353 1747
Q 353 2609 779 3096
Q 1206 3584 1959 3584
z
" transform="scale(0.015625)"/>
       <path id="DejaVuSans-66" d="M 2375 4863
L 2375 4384
L 1825 4384
Q 1516 4384 1395 4259
Q 1275 4134 1275 3809
L 1275 3500
L 2222 3500
L 2222 3053
L 1275 3053
L 1275 0
L 697 0
L 697 3053
L 147 3053
L 147 3500
L 697 3500
L 697 3744
Q 697 4328 969 4595
Q 1241 4863 1831 4863
L 2375 4863
z
" transform="scale(0.015625)"/>
       <path id="DejaVuSans-63" d="M 3122 3366
L 3122 2828
Q 2878 2963 2633 3030
Q 2388 3097 2138 3097
Q 1578 3097 1268 2742
Q 959 2388 959 1747
Q 959 1106 1268 751
Q 1578 397 2138 397
Q 2388 397 2633 464
Q 2878 531 3122 666
L 3122 134
Q 2881 22 2623 -34
Q 2366 -91 2075 -91
Q 1284 -91 818 406
Q 353 903 353 1747
Q 353 2603 823 3093
Q 1294 3584 2113 3584
Q 2378 3584 2631 3529
Q 2884 3475 3122 3366
z
" transform="scale(0.015625)"/>
       <path id="DejaVuSans-64" d="M 2906 2969
L 2906 4863
L 3481 4863
L 3481 0
L 2906 0
L 2906 525
Q 2725 213 2448 61
Q 2172 -91 1784 -91
Q 1150 -91 751 415
Q 353 922 353 1747
Q 353 2572 751 3078
Q 1150 3584 1784 3584
Q 2172 3584 2448 3432
Q 2725 3281 2906 2969
z
M 947 1747
Q 947 1113 1208 752
Q 1469 391 1925 391
Q 2381 391 2643 752
Q 2906 1113 2906 1747
Q 2906 2381 2643 2742
Q 2381 3103 1925 3103
Q 1469 3103 1208 2742
Q 947 2381 947 1747
z
" transform="scale(0.015625)"/>
      </defs>
      <use xlink:href="#DejaVuSans-4c"/>
      <use xlink:href="#DejaVuSans-69" transform="translate(55.712891 0)"/>
      <use xlink:href="#DejaVuSans-6e" transform="translate(83.496094 0)"/>
      <use xlink:href="#DejaVuSans-65" transform="translate(146.875 0)"/>
      <use xlink:href="#DejaVuSans-73" transform="translate(208.398438 0)"/>
      <use xlink:href="#DejaVuSans-20" transform="translate(260.498047 0)"/>
      <use xlink:href="#DejaVuSans-6f" transform="translate(292.285156 0)"/>
      <use xlink:href="#DejaVuSans-66" transform="translate(353.466797 0)"/>
      <use xlink:href="#DejaVuSans-20" transform="translate(388.671875 0)"/>
      <use xlink:href="#DejaVuSans-63" transform="translate(420.458984 0)"/>
      <use xlink:href="#DejaVuSans-6f" transform="translate(475.439453 0)"/>
      <use xlink:href="#DejaVuSans-64" transform="translate(536.621094 0)"/>
      <use xlink:href="#DejaVuSans-65" transform="translate(600.097656 0)"/>
     </g>
    </g>
   </g>
   <g id="FillBetweenPolyCollection_1">
    <path d="M 184.581818 768.892929
L 184.581818 768.96
L 251.37168 768.96
L 321.350111 768.96
L 381.684081 768.96
L 440.408544 768.96
L 498.434805 768.96
L 555.908461 768.96
L 673.74322 768.96
L 731.251289 768.96
L 789.553522 768.96
L 880.226545 768.96
L 938.491056 768.96
L 996.218182 768.96
L 996.218182 768.778513
L 996.218182 768.778513
L 938.491056 768.787719
L 880.226545 768.853475
L 789.553522 768.853475
L 731.251289 768.866626
L 673.74322 768.866626
L 555.908461 768.866626
L 498.434805 768.866626
L 440.408544 768.871887
L 381.684081 768.892929
L 321.350111 768.892929
L 251.37168 768.892929
L 184.581818 768.892929
z
" clip-path="url(#p21e95c50f8)" style="fill: #e66666"/>
   </g>
   <g id="FillBetweenPolyCollection_2">
    <path d="M 184.581818 767.156963
L 184.581818 768.892929
L 251.37168 768.892929
L 321.350111 768.892929
L 381.684081 768.892929
L 440.408544 768.871887
L 498.434805 768.866626
L 555.908461 768.866626
L 673.74322 768.866626
L 731.251289 768.866626
L 789.553522 768.853475
L 880.226545 768.853475
L 938.491056 768.787719
L 996.218182 768.778513
L 996.218182 751.612175
L 996.218182 751.612175
L 938.491056 751.758154
L 880.226545 751.92386
L 789.553522 751.92386
L 731.251289 752.050112
L 673.74322 752.12902
L 555.908461 752.12902
L 498.434805 753.014099
L 440.408544 754.444956
L 381.684081 762.301518
L 321.350111 764.383362
L 251.37168 766.950488
L 184.581818 767.156963
z
" clip-path="url(#p21e95c50f8)" style="fill: #66e6e6"/>
   </g>
   <g id="FillBetweenPolyCollection_3">
    <path d="M 184.581818 767.131975
L 184.581818 767.156963
L 251.37168 766.950488
L 321.350111 764.383362
L 381.684081 762.301518
L 440.408544 754.444956
L 498.434805 753.014099
L 555.908461 752.12902
L 673.74322 752.12902
L 731.251289 752.050112
L 789.553522 751.92386
L 880.226545 751.92386
L 938.491056 751.758154
L 996.218182 751.612175
L 996.218182 750.416726
L 996.218182 750.416726
L 938.491056 750.895432
L 880.226545 751.061138
L 789.553522 751.061138
L 731.251289 751.18739
L 673.74322 751.266297
L 555.908461 751.266297
L 498.434805 752.154007
L 440.408544 754.394982
L 381.684081 762.276531
L 321.350111 764.358375
L 251.37168 766.9255
L 184.581818 767.131975
z
" clip-path="url(#p21e95c50f8)" style="fill: #666699"/>
   </g>
   <g id="FillBetweenPolyCollection_4">
    <path d="M 184.581818 767.131975
L 184.581818 767.131975
L 251.37168 766.9255
L 321.350111 764.358375
L 381.684081 762.276531
L 440.408544 754.394982
L 498.434805 752.154007
L 555.908461 751.266297
L 673.74322 751.266297
L 731.251289 751.18739
L 789.553522 751.061138
L 880.226545 751.061138
L 938.491056 750.895432
L 996.218182 750.416726
L 996.218182 750.152386
L 996.218182 750.152386
L 938.491056 750.631092
L 880.226545 750.796797
L 789.553522 750.796797
L 731.251289 750.923049
L 673.74322 751.001957
L 555.908461 751.001957
L 498.434805 751.889667
L 440.408544 754.394982
L 381.684081 762.276531
L 321.350111 764.358375
L 251.37168 766.9255
L 184.581818 767.131975
z
" clip-path="url(#p21e95c50f8)" style="fill: #99e666"/>
   </g>
   <g id="FillBetweenPolyCollection_5">
    <path d="M 184.581818 767.131975
L 184.581818 767.131975
L 251.37168 766.9255
L 321.350111 764.358375
L 381.684081 762.276531
L 440.408544 754.394982
L 498.434805 751.889667
L 555.908461 751.001957
L 673.74322 751.001957
L 731.251289 750.923049
L 789.553522 750.796797
L 880.226545 750.796797
L 938.491056 750.631092
L 996.218182 750.152386
L 996.218182 749.955117
L 996.218182 749.955117
L 938.491056 750.589007
L 880.226545 750.796797
L 789.553522 750.796797
L 731.251289 750.923049
L 673.74322 751.001957
L 555.908461 751.001957
L 498.434805 751.889667
L 440.408544 754.394982
L 381.684081 762.276531
L 321.350111 764.358375
L 251.37168 766.9255
L 184.581818 767.131975
z
" clip-path="url(#p21e95c50f8)" style="fill: #e699e6"/>
   </g>
   <g id="FillBetweenPolyCollection_6">
    <path d="M 184.581818 764.691102
L 184.581818 767.131975
L 251.37168 766.9255
L 321.350111 764.358375
L 381.684081 762.276531
L 440.408544 754.394982
L 498.434805 751.889667
L 555.908461 751.001957
L 673.74322 751.001957
L 731.251289 750.923049
L 789.553522 750.796797
L 880.226545 750.796797
L 938.491056 750.589007
L 996.218182 749.955117
L 996.218182 219.184804
L 996.218182 219.184804
L 938.491056 298.252799
L 880.226545 334.961905
L 789.553522 334.961905
L 731.251289 433.16498
L 673.74322 536.214294
L 555.908461 605.229466
L 498.434805 606.678735
L 440.408544 640.628708
L 381.684081 749.93276
L 321.350111 754.869742
L 251.37168 761.045573
L 184.581818 764.691102
z
" clip-path="url(#p21e95c50f8)" style="fill: #cce6b3"/>
   </g>
   <g id="FillBetweenPolyCollection_7">
    <path d="M 184.581818 764.691102
L 184.581818 764.691102
L 251.37168 761.045573
L 321.350111 754.869742
L 381.684081 749.93276
L 440.408544 640.628708
L 498.434805 606.678735
L 555.908461 605.229466
L 673.74322 536.214294
L 731.251289 433.16498
L 789.553522 334.961905
L 880.226545 334.961905
L 938.491056 298.252799
L 996.218182 219.184804
L 996.218182 218.552229
L 996.218182 218.552229
L 938.491056 297.630744
L 880.226545 334.414813
L 789.553522 334.414813
L 731.251289 433.063716
L 673.74322 536.113029
L 555.908461 605.128202
L 498.434805 606.57747
L 440.408544 640.628708
L 381.684081 749.93276
L 321.350111 754.869742
L 251.37168 761.045573
L 184.581818 764.691102
z
" clip-path="url(#p21e95c50f8)" style="fill: #9966e6"/>
   </g>
   <g id="FillBetweenPolyCollection_8">
    <path d="M 184.581818 764.67795
L 184.581818 764.691102
L 251.37168 761.045573
L 321.350111 754.869742
L 381.684081 749.93276
L 440.408544 640.628708
L 498.434805 606.57747
L 555.908461 605.128202
L 673.74322 536.113029
L 731.251289 433.063716
L 789.553522 334.414813
L 880.226545 334.414813
L 938.491056 297.630744
L 996.218182 218.552229
L 996.218182 217.550103
L 996.218182 217.550103
L 938.491056 296.720677
L 880.226545 333.508691
L 789.553522 333.508691
L 731.251289 432.094468
L 673.74322 535.421273
L 555.908461 604.741555
L 498.434805 606.190823
L 440.408544 640.319653
L 381.684081 749.919608
L 321.350111 754.856591
L 251.37168 761.032422
L 184.581818 764.67795
z
" clip-path="url(#p21e95c50f8)" style="fill: #b39999"/>
   </g>
   <g id="FillBetweenPolyCollection_9">
    <path d="M 184.581818 763.619274
L 184.581818 764.67795
L 251.37168 761.032422
L 321.350111 754.856591
L 381.684081 749.919608
L 440.408544 640.319653
L 498.434805 606.190823
L 555.908461 604.741555
L 673.74322 535.421273
L 731.251289 432.094468
L 789.553522 333.508691
L 880.226545 333.508691
L 938.491056 296.720677
L 996.218182 217.550103
L 996.218182 195.486237
L 996.218182 195.486237
L 938.491056 275.985088
L 880.226545 315.265266
L 789.553522 315.265266
L 731.251289 413.851043
L 673.74322 522.413363
L 555.908461 593.922015
L 498.434805 595.483069
L 440.408544 634.008364
L 381.684081 746.546311
L 321.350111 752.340755
L 251.37168 759.512136
L 184.581818 763.619274
z
" clip-path="url(#p21e95c50f8)" style="fill: #e6cc66"/>
   </g>
   <g id="FillBetweenPolyCollection_10">
    <path d="M 184.581818 756.315065
L 184.581818 763.619274
L 251.37168 759.512136
L 321.350111 752.340755
L 381.684081 746.546311
L 440.408544 634.008364
L 498.434805 595.483069
L 555.908461 593.922015
L 673.74322 522.413363
L 731.251289 413.851043
L 789.553522 315.265266
L 880.226545 315.265266
L 938.491056 275.985088
L 996.218182 195.486237
L 996.218182 135.569105
L 996.218182 135.569105
L 938.491056 228.147387
L 880.226545 275.121051
L 789.553522 275.121051
L 731.251289 373.89226
L 673.74322 488.057017
L 555.908461 559.894449
L 498.434805 562.494453
L 440.408544 604.959865
L 381.684081 724.911176
L 321.350111 734.958737
L 251.37168 749.909087
L 184.581818 756.315065
z
" clip-path="url(#p21e95c50f8)" style="fill: #66cc99"/>
   </g>
   <g id="FillBetweenPolyCollection_11">
    <path d="M 184.581818 756.315065
L 184.581818 756.315065
L 251.37168 749.909087
L 321.350111 734.958737
L 381.684081 724.911176
L 440.408544 604.959865
L 498.434805 562.494453
L 555.908461 559.894449
L 673.74322 488.057017
L 731.251289 373.89226
L 789.553522 275.121051
L 880.226545 275.121051
L 938.491056 228.147387
L 996.218182 135.569105
L 996.218182 135.36
L 996.218182 135.36
L 938.491056 228.084261
L 880.226545 275.057925
L 789.553522 275.057925
L 731.251289 373.830449
L 673.74322 487.995206
L 555.908461 559.832638
L 498.434805 562.432642
L 440.408544 604.898055
L 381.684081 724.911176
L 321.350111 734.958737
L 251.37168 749.909087
L 184.581818 756.315065
z
" clip-path="url(#p21e95c50f8)" style="fill: #6699e6"/>
   </g>
   <g id="patch_3">
    <path d="M 144 768.96
L 144 103.68
" style="fill: none; stroke: #ffffff; stroke-linejoin: miter; stroke-linecap: square"/>
   </g>
   <g id="patch_4">
    <path d="M 1036.8 768.96
L 1036.8 103.68
" style="fill: none; stroke: #ffffff; stroke-linejoin: miter; stroke-linecap: square"/>
   </g>
   <g id="patch_5">
    <path d="M 144 768.96
L 1036.8 768.96
" style="fill: none; stroke: #ffffff; stroke-linejoin: miter; stroke-linecap: square"/>
   </g>
   <g id="patch_6">
    <path d="M 144 103.68
L 1036.8 103.68
" style="fill: none; stroke: #ffffff; stroke-linejoin: miter; stroke-linecap: square"/>
   </g>
   <g id="legend_1">
    <g id="patch_7">
     <path d="M 151 258.46125
L 209.640625 258.46125
Q 211.640625 258.46125 211.640625 256.46125
L 211.640625 110.68
Q 211.640625 108.68 209.640625 108.68
L 151 108.68
Q 149 108.68 149 110.68
L 149 256.46125
Q 149 258.46125 151 258.46125
z
" style="fill: #e5e5e5; opacity: 0.8; stroke: #cccccc; stroke-width: 0.5; stroke-linejoin: miter"/>
    </g>
    <g id="patch_8">
     <path d="M 153 120.278437
L 173 120.278437
L 173 113.278437
L 153 113.278437
z
" style="fill: #66e6e6"/>
    </g>
    <g id="text_16">
     <!-- .css -->
     <g transform="translate(181 120.278437) scale(0.1 -0.1)">
      <defs>
       <path id="DejaVuSans-2e" d="M 684 794
L 1344 794
L 1344 0
L 684 0
L 684 794
z
" transform="scale(0.015625)"/>
      </defs>
      <use xlink:href="#DejaVuSans-2e"/>
      <use xlink:href="#DejaVuSans-63" transform="translate(31.787109 0)"/>
      <use xlink:href="#DejaVuSans-73" transform="translate(86.767578 0)"/>
      <use xlink:href="#DejaVuSans-73" transform="translate(138.867188 0)"/>
     </g>
    </g>
    <g id="patch_9">
     <path d="M 153 134.956563
L 173 134.956563
L 173 127.956563
L 153 127.956563
z
" style="fill: #666699"/>
    </g>
    <g id="text_17">
     <!-- .html -->
     <g transform="translate(181 134.956563) scale(0.1 -0.1)">
      <defs>
       <path id="DejaVuSans-68" d="M 3513 2113
L 3513 0
L 2938 0
L 2938 2094
Q 2938 2591 2744 2837
Q 2550 3084 2163 3084
Q 1697 3084 1428 2787
Q 1159 2491 1159 1978
L 1159 0
L 581 0
L 581 4863
L 1159 4863
L 1159 2956
Q 1366 3272 1645 3428
Q 1925 3584 2291 3584
Q 2894 3584 3203 3211
Q 3513 2838 3513 2113
z
" transform="scale(0.015625)"/>
       <path id="DejaVuSans-74" d="M 1172 4494
L 1172 3500
L 2356 3500
L 2356 3053
L 1172 3053
L 1172 1153
Q 1172 725 1289 603
Q 1406 481 1766 481
L 2356 481
L 2356 0
L 1766 0
Q 1100 0 847 248
Q 594 497 594 1153
L 594 3053
L 172 3053
L 172 3500
L 594 3500
L 594 4494
L 1172 4494
z
" transform="scale(0.015625)"/>
       <path id="DejaVuSans-6d" d="M 3328 2828
Q 3544 3216 3844 3400
Q 4144 3584 4550 3584
Q 5097 3584 5394 3201
Q 5691 2819 5691 2113
L 5691 0
L 5113 0
L 5113 2094
Q 5113 2597 4934 2840
Q 4756 3084 4391 3084
Q 3944 3084 3684 2787
Q 3425 2491 3425 1978
L 3425 0
L 2847 0
L 2847 2094
Q 2847 2600 2669 2842
Q 2491 3084 2119 3084
Q 1678 3084 1418 2786
Q 1159 2488 1159 1978
L 1159 0
L 581 0
L 581 3500
L 1159 3500
L 1159 2956
Q 1356 3278 1631 3431
Q 1906 3584 2284 3584
Q 2666 3584 2933 3390
Q 3200 3197 3328 2828
z
" transform="scale(0.015625)"/>
       <path id="DejaVuSans-6c" d="M 603 4863
L 1178 4863
L 1178 0
L 603 0
L 603 4863
z
" transform="scale(0.015625)"/>
      </defs>
      <use xlink:href="#DejaVuSans-2e"/>
      <use xlink:href="#DejaVuSans-68" transform="translate(31.787109 0)"/>
      <use xlink:href="#DejaVuSans-74" transform="translate(95.166016 0)"/>
      <use xlink:href="#DejaVuSans-6d" transform="translate(134.375 0)"/>
      <use xlink:href="#DejaVuSans-6c" transform="translate(231.787109 0)"/>
     </g>
    </g>
    <g id="patch_10">
     <path d="M 153 149.634688
L 173 149.634688
L 173 142.634688
L 153 142.634688
z
" style="fill: #99e666"/>
    </g>
    <g id="text_18">
     <!-- .js -->
     <g transform="translate(181 149.634688) scale(0.1 -0.1)">
      <defs>
       <path id="DejaVuSans-6a" d="M 603 3500
L 1178 3500
L 1178 -63
Q 1178 -731 923 -1031
Q 669 -1331 103 -1331
L -116 -1331
L -116 -844
L 38 -844
Q 366 -844 484 -692
Q 603 -541 603 -63
L 603 3500
z
M 603 4863
L 1178 4863
L 1178 4134
L 603 4134
L 603 4863
z
" transform="scale(0.015625)"/>
      </defs>
      <use xlink:href="#DejaVuSans-2e"/>
      <use xlink:href="#DejaVuSans-6a" transform="translate(31.787109 0)"/>
      <use xlink:href="#DejaVuSans-73" transform="translate(59.570312 0)"/>
     </g>
    </g>
    <g id="patch_11">
     <path d="M 153 164.312813
L 173 164.312813
L 173 157.312813
L 153 157.312813
z
" style="fill: #e699e6"/>
    </g>
    <g id="text_19">
     <!-- .po -->
     <g transform="translate(181 164.312813) scale(0.1 -0.1)">
      <defs>
       <path id="DejaVuSans-70" d="M 1159 525
L 1159 -1331
L 581 -1331
L 581 3500
L 1159 3500
L 1159 2969
Q 1341 3281 1617 3432
Q 1894 3584 2278 3584
Q 2916 3584 3314 3078
Q 3713 2572 3713 1747
Q 3713 922 3314 415
Q 2916 -91 2278 -91
Q 1894 -91 1617 61
Q 1341 213 1159 525
z
M 3116 1747
Q 3116 2381 2855 2742
Q 2594 3103 2138 3103
Q 1681 3103 1420 2742
Q 1159 2381 1159 1747
Q 1159 1113 1420 752
Q 1681 391 2138 391
Q 2594 391 2855 752
Q 3116 1113 3116 1747
z
" transform="scale(0.015625)"/>
      </defs>
      <use xlink:href="#DejaVuSans-2e"/>
      <use xlink:href="#DejaVuSans-70" transform="translate(31.787109 0)"/>
      <use xlink:href="#DejaVuSans-6f" transform="translate(95.263672 0)"/>
     </g>
    </g>
    <g id="patch_12">
     <path d="M 153 178.990937
L 173 178.990937
L 173 171.990937
L 153 171.990937
z
" style="fill: #cce6b3"/>
    </g>
    <g id="text_20">
     <!-- .py -->
     <g transform="translate(181 178.990937) scale(0.1 -0.1)">
      <defs>
       <path id="DejaVuSans-79" d="M 2059 -325
Q 1816 -950 1584 -1140
Q 1353 -1331 966 -1331
L 506 -1331
L 506 -850
L 844 -850
Q 1081 -850 1212 -737
Q 1344 -625 1503 -206
L 1606 56
L 191 3500
L 800 3500
L 1894 763
L 2988 3500
L 3597 3500
L 2059 -325
z
" transform="scale(0.015625)"/>
      </defs>
      <use xlink:href="#DejaVuSans-2e"/>
      <use xlink:href="#DejaVuSans-70" transform="translate(31.787109 0)"/>
      <use xlink:href="#DejaVuSans-79" transform="translate(95.263672 0)"/>
     </g>
    </g>
    <g id="patch_13">
     <path d="M 153 193.669062
L 173 193.669062
L 173 186.669062
L 153 186.669062
z
" style="fill: #9966e6"/>
    </g>
    <g id="text_21">
     <!-- .sh -->
     <g transform="translate(181 193.669062) scale(0.1 -0.1)">
      <use xlink:href="#DejaVuSans-2e"/>
      <use xlink:href="#DejaVuSans-73" transform="translate(31.787109 0)"/>
      <use xlink:href="#DejaVuSans-68" transform="translate(83.886719 0)"/>
     </g>
    </g>
    <g id="patch_14">
     <path d="M 153 208.347188
L 173 208.347188
L 173 201.347188
L 153 201.347188
z
" style="fill: #b39999"/>
    </g>
    <g id="text_22">
     <!-- .toml -->
     <g transform="translate(181 208.347188) scale(0.1 -0.1)">
      <use xlink:href="#DejaVuSans-2e"/>
      <use xlink:href="#DejaVuSans-74" transform="translate(31.787109 0)"/>
      <use xlink:href="#DejaVuSans-6f" transform="translate(70.996094 0)"/>
      <use xlink:href="#DejaVuSans-6d" transform="translate(132.177734 0)"/>
      <use xlink:href="#DejaVuSans-6c" transform="translate(229.589844 0)"/>
     </g>
    </g>
    <g id="patch_15">
     <path d="M 153 223.025313
L 173 223.025313
L 173 216.025313
L 153 216.025313
z
" style="fill: #e6cc66"/>
    </g>
    <g id="text_23">
     <!-- .ts -->
     <g transform="translate(181 223.025313) scale(0.1 -0.1)">
      <use xlink:href="#DejaVuSans-2e"/>
      <use xlink:href="#DejaVuSans-74" transform="translate(31.787109 0)"/>
      <use xlink:href="#DejaVuSans-73" transform="translate(70.996094 0)"/>
     </g>
    </g>
    <g id="patch_16">
     <path d="M 153 237.703437
L 173 237.703437
L 173 230.703437
L 153 230.703437
z
" style="fill: #66cc99"/>
    </g>
    <g id="text_24">
     <!-- .tsx -->
     <g transform="translate(181 237.703437) scale(0.1 -0.1)">
      <defs>
       <path id="DejaVuSans-78" d="M 3513 3500
L 2247 1797
L 3578 0
L 2900 0
L 1881 1375
L 863 0
L 184 0
L 1544 1831
L 300 3500
L 978 3500
L 1906 2253
L 2834 3500
L 3513 3500
z
" transform="scale(0.015625)"/>
      </defs>
      <use xlink:href="#DejaVuSans-2e"/>
      <use xlink:href="#DejaVuSans-74" transform="translate(31.787109 0)"/>
      <use xlink:href="#DejaVuSans-73" transform="translate(70.996094 0)"/>
      <use xlink:href="#DejaVuSans-78" transform="translate(123.095703 0)"/>
     </g>
    </g>
    <g id="patch_17">
     <path d="M 153 252.381562
L 173 252.381562
L 173 245.381562
L 153 245.381562
z
" style="fill: #6699e6"/>
    </g>
    <g id="text_25">
     <!-- other -->
     <g transform="translate(181 252.381562) scale(0.1 -0.1)">
      <defs>
       <path id="DejaVuSans-72" d="M 2631 2963
Q 2534 3019 2420 3045
Q 2306 3072 2169 3072
Q 1681 3072 1420 2755
Q 1159 2438 1159 1844
L 1159 0
L 581 0
L 581 3500
L 1159 3500
L 1159 2956
Q 1341 3275 1631 3429
Q 1922 3584 2338 3584
Q 2397 3584 2469 3576
Q 2541 3569 2628 3553
L 2631 2963
z
" transform="scale(0.015625)"/>
      </defs>
      <use xlink:href="#DejaVuSans-6f"/>
      <use xlink:href="#DejaVuSans-74" transform="translate(61.181641 0)"/>
      <use xlink:href="#DejaVuSans-68" transform="translate(100.390625 0)"/>
      <use xlink:href="#DejaVuSans-65" transform="translate(163.769531 0)"/>
      <use xlink:href="#DejaVuSans-72" transform="translate(225.292969 0)"/>
     </g>
    </g>
   </g>
  </g>
 </g>
 <defs>
  <clipPath id="p21e95c50f8">
   <rect x="144" y="103.68" width="892.8" height="665.28"/>
  </clipPath>
 </defs>
</svg>
